<svg width="21" height="26" viewBox="0 0 21 26" fill="none" xmlns="http://www.w3.org/2000/svg">
<path d="M18.3678 2.75517H15.6126V1.83678C15.6126 1.34964 15.4191 0.882444 15.0747 0.537981C14.7302 0.193517 14.263 0 13.7759 0H6.42874C5.94159 0 5.4744 0.193517 5.12994 0.537981C4.78547 0.882444 4.59196 1.34964 4.59196 1.83678V2.75517H1.83678C1.34964 2.75517 0.882444 2.94869 0.537981 3.29315C0.193517 3.63762 0 4.10481 0 4.59195V23.8782C0 24.3653 0.193517 24.8325 0.537981 25.177C0.882444 25.5214 1.34964 25.7149 1.83678 25.7149H18.3678C18.855 25.7149 19.3222 25.5214 19.6666 25.177C20.0111 24.8325 20.2046 24.3653 20.2046 23.8782V4.59195C20.2046 4.10481 20.0111 3.63762 19.6666 3.29315C19.3222 2.94869 18.855 2.75517 18.3678 2.75517ZM6.42874 1.83678H13.7759V5.51035H6.42874V1.83678ZM18.3678 23.8782H1.83678V4.59195H4.59196V7.34713H15.6126V4.59195H18.3678V23.8782Z" fill="white"/>
</svg>
