<svg width="30" height="30" viewBox="0 0 30 30" fill="none" xmlns="http://www.w3.org/2000/svg">
<path d="M9.26525 14.4444C10.7864 14.4444 12.2453 13.6835 13.321 12.3291C14.3966 10.9747 15.0009 9.13768 15.0009 7.22222C15.0009 5.30677 14.3966 3.46977 13.321 2.11534C12.2453 0.76091 10.7864 0 9.26525 0C7.74407 0 6.28519 0.76091 5.20955 2.11534C4.13391 3.46977 3.52962 5.30677 3.52962 7.22222C3.52962 9.13768 4.13391 10.9747 5.20955 12.3291C6.28519 13.6835 7.74407 14.4444 9.26525 14.4444ZM19.3017 25.8778C20.2371 26.36 21.4266 26.6667 22.9408 26.6667C30 26.6667 30 20 30 20C30 19.1163 29.7213 18.2688 29.2253 17.6438C28.7292 17.0187 28.0563 16.6673 27.3545 16.6667H19.187C19.8806 17.7244 20.2971 19.0778 20.2971 20.5556V21.3467C20.2933 21.5338 20.2833 21.7206 20.2671 21.9067C20.1469 23.2949 19.8182 24.6421 19.3017 25.8778ZM27.3545 8.88889C27.3545 10.3623 26.8897 11.7754 26.0623 12.8173C25.2349 13.8591 24.1127 14.4444 22.9425 14.4444C21.7724 14.4444 20.6502 13.8591 19.8228 12.8173C18.9953 11.7754 18.5305 10.3623 18.5305 8.88889C18.5305 7.41546 18.9953 6.00239 19.8228 4.96052C20.6502 3.91865 21.7724 3.33333 22.9425 3.33333C24.1127 3.33333 25.2349 3.91865 26.0623 4.96052C26.8897 6.00239 27.3545 7.41546 27.3545 8.88889ZM0 21.1111C0 19.9324 0.371869 18.8019 1.0338 17.9684C1.69573 17.1349 2.59351 16.6667 3.52962 16.6667H15.0009C15.937 16.6667 16.8348 17.1349 17.4967 17.9684C18.1586 18.8019 18.5305 19.9324 18.5305 21.1111C18.5305 21.1111 18.5305 30 9.26525 30C0 30 0 21.1111 0 21.1111Z" fill="#74A2D1"/>
</svg>
